<?xml version="1.0" encoding="utf-8"?>
<!-- Generator: Adobe Illustrator 19.0.0, SVG Export Plug-In . SVG Version: 6.00 Build 0)  -->
<svg version="1.1" id="Layer_1" xmlns="http://www.w3.org/2000/svg" xmlns:xlink="http://www.w3.org/1999/xlink" x="0px" y="0px"
	 viewBox="0 0 400 400" style="enable-background:new 0 0 400 400;" xml:space="preserve">
<style type="text/css">
	.st0{fill:#F9AA92;}
	.st1{fill:#6E613D;}
	.st2{fill:#93ABB7;}
	.st3{fill:#6E613E;}
	.st4{fill:#F16154;}
	.st5{fill:#F7A98F;}
	.st6{fill:#F16356;}
	.st7{fill:#6F613D;}
	.st8{fill:#FFDF82;}
	.st9{fill:#F79151;}
	.st10{fill:#D5B556;}
	.st11{fill:#C5AB8E;}
	.st12{fill:#FFF6D9;}
	.st13{fill:#C57D44;}
	.st14{fill:#F58A68;}
	.st15{fill:#D5B555;}
	.st16{fill:#D96F41;}
	.st17{fill:#FDDCC8;}
	.st18{fill:#FBDACE;}
	.st19{fill:#FCF4D7;}
	.st20{fill:#D4B455;}
	.st21{fill:#C9BC94;}
	.st22{fill:#EE5730;}
	.st23{fill:#C3A98C;}
	.st24{fill:#ECD5C4;}
	.st25{fill:#C8BB93;}
	.st26{fill:#AB924B;}
	.st27{fill:#C9BB92;}
	.st28{fill:#C2B691;}
	.st29{fill:#E9C5B5;}
	.st30{fill:#FBD4BA;}
	.st31{fill:#FEDDC9;}
	.st32{fill:#E8C0A2;}
	.st33{fill:#FACDAE;}
	.st34{fill:#FACBAD;}
	.st35{fill:#EDBEAD;}
	.st36{fill:#CBB76C;}
	.st37{fill:#ECE5CF;}
	.st38{fill:#F8F1D8;}
	.st39{fill:#CFC4A2;}
	.st40{fill:#C9B66C;}
	.st41{fill:#F8F1D9;}
	.st42{fill:#BDB392;}
	.st43{fill:#FCDE82;}
	.st44{fill:#D2B355;}
	.st45{fill:#FCEFC9;}
	.st46{fill:#6F623D;}
	.st47{fill:#70623E;}
	.st48{fill:#71633E;}
	.st49{fill:#D6B556;}
	.st50{fill:#D3B355;}
	.st51{fill:#D1B154;}
	.st52{fill:#C67E44;}
	.st53{fill:#70633E;}
	.st54{fill:#F26B4F;}
	.st55{fill:#F26C4F;}
	.st56{fill:#B0964C;}
	.st57{fill:#C7A951;}
	.st58{fill:#FAE696;}
	.st59{fill:#F9E491;}
	.st60{fill:#F7E394;}
	.st61{fill:#FCDACF;}
	.st62{fill:#C6A48C;}
	.st63{fill:#ECC5B6;}
	.st64{fill:#E6B6A2;}
	.st65{fill:#BA9477;}
	.st66{fill:#FAD9CD;}
	.st67{fill:#C5A48B;}
	.st68{fill:#ECC5B5;}
	.st69{fill:#9A673E;}
	.st70{fill:#BD957A;}
	.st71{fill:#A68477;}
	.st72{fill:#D7CBC3;}
	.st73{fill:#A8877A;}
	.st74{fill:#D3CAC0;}
	.st75{fill:#AE9184;}
	.st76{fill:#DCD5CD;}
	.st77{fill:#A68879;}
	.st78{fill:#D7CCC4;}
	.st79{fill:#A9887B;}
	.st80{fill:#C8BFB2;}
	.st81{fill:#F26C50;}
</style>
<g id="XMLID_1_">
	<g id="XMLID_117_">
		<path id="XMLID_227_" class="st0" d="M347.5,225.3c-2.3,2.2-2.4,5.3-3.6,7.9c-2.6,5.6-5.1,11.3-7.6,16.9c-1.5,0.4-2.3-0.7-3.4-1.4
			c-5.1-3.4-12.4-2.4-16.1,2.1c-4.2,5.1-3.7,12.3,1,16.9c1.2,1.2,2.9,1.8,3.3,3.7c-23,27.5-52.3,43.5-87.8,48.6
			c-11.4,1.6-22.8,1.7-34.3,0.5c-1-2.5-0.1-5-0.1-7.6c-0.1-13.5-0.1-27,0-40.5c0-1.4-0.1-2.8,0.2-4.3c0.4-2.1,1.4-2.6,3.3-1.4
			c0.9,0.6,1.7,1.5,2.6,2.2c8.6,6.9,20.2,2.8,22.4-8c1.1-5.5,0.9-11.1,0.4-16.6c-0.9-7.9,2-13.7,7.5-18.8
			c7.7-7.2,14.5-15.2,21.8-22.7c18.6-19.2,36.8-38.7,55.2-58c6.9-7.3,14.4-14.1,20.7-22c1.3-1.6,2.5-3.5,5.1-3.4
			c10.5,20.9,15.7,43,15.3,66.3c-0.1,7.8-1.3,15.5-2.4,23.2c-0.2,0.9-0.8,1.4-1.5,2c-5,4.6-5.4,6.4-2.2,12.6
			C347.6,224.2,347.7,224.7,347.5,225.3z"/>
		<path id="XMLID_226_" class="st1" d="M338,119.6c-12.8,13.3-25.5,26.6-38.3,39.9c-15.7,16.5-31.4,33.1-47.2,49.7
			c-7.3,7.7-14.6,15.5-22,23.1c-1.4,1.5-1.9,3-1.8,5c0.1,6.5,0,13.1,0,19.6c0,7.7-3.4,13.3-9.4,15.7c-6.4,2.6-12.1,1-17.6-4.7
			c-0.4-0.4-0.8-0.7-1.8-1.7c0,4.9,0,9,0,13.2c0,11.1,0,22.1,0,33.2c0,2.7,0,5.4-1.1,7.9c-6.5,9.6-15.4,11.8-23.3,5.7
			c-4-3.1-5.5-7.4-5.8-12.2c-1.8-3.3-0.6-6.9-0.9-10.3c-0.1-1.7,0.2-3.3-0.1-4.7c-3.3,3.5-6.2,7.6-10.8,10
			c-6.4,6.6-12.8,13.2-19.2,19.7c-1,1-1.9,2.1-3,3c-3.7,3.4-6.2,2.7-9.2-1.5c-7.2-10.2-9.9-21.9-12-33.9c-1.3-7.2-2.5-14.4-3.7-21.7
			c-1.8-3-2.3-6.4-2.7-9.8c-2.5-23.2-3.9-46.4-3.6-69.7c0.4-30.3,3-60.4,7.5-90.3c0.7-4.8,1.3-9.6,2.3-14.3c0.4-1.8,0.7-3.6,1.9-5.1
			c2.4-11.2,4.8-22.3,7.3-33.4c0.5-2.2-1.3-2.2-2.4-2.8c-7.8-4.1-11.4-11.2-10.1-20.1c1.1-7.2,6.8-12.8,14.7-14.5
			c8.2-1.8,16.5-2.8,24.8-3.2c56.6-2.8,110.5,8.2,162,31.5c17.5,7.9,33.9,17.6,48.6,30.1c6.5,5.5,7.2,13.3,1.3,19.6
			c-7.2,7.8-14.6,15.5-21.9,23.3C339.9,117.2,339,118.4,338,119.6z"/>
		<path id="XMLID_225_" class="st0" d="M116.6,85.6c-1.8,12.6-3.6,25.2-5.4,37.8c-2.4,17.1-3.6,34.4-4.4,51.7
			c-1.5,32.1-0.3,64.1,3.7,95.9c0.2,1.2,0.4,2.5,0.6,3.7c-18.6-20.8-30-45.2-33.6-72.8c-4.9-38,4.1-72.8,27.5-103.5
			C108.5,93.9,111.9,89.1,116.6,85.6z"/>
		<path id="XMLID_224_" class="st2" d="M200.1,377.3c2.5,1.3,5.1,0.4,7.7,0.8c2.1,5.8,6.5,6.7,12.1,6.5c9.8-0.4,19.6-0.3,29.3,0
			c5,0.1,9.3-0.5,11.5-5.7c28,0.3,56,1.2,83.7,6.9c-4.3,3.3-9.4,3.7-14.2,4.2c-12.6,1.3-25.3,2.1-38,2.9c-22.5,1.4-45,1.3-67.5,1.7
			c-6,0.1-12.2,1-18.2,0.6c-16.6-1.3-33.2-0.1-49.7-0.9c-12.3-0.6-24.6-0.8-36.8-1.7c-12.6-0.9-25.3-1.5-37.7-4.1
			c-1.6-0.3-3.3-0.5-4.8-2.1c3.2-2.3,6.9-2.5,10.3-2.9c10-1.4,20.1-2.3,30.3-2.9c14.3-0.9,28.5-1.7,42.8-1.7c1.7,0,3.3-0.5,5-0.8
			c1.7,6,6.1,7,11.5,6.5c4.7-0.4,9.4,0,14-0.1c5.5-0.1,5.9-0.4,7.7-5.8C199.3,378.1,199.6,377.6,200.1,377.3z"/>
		<path id="XMLID_223_" class="st3" d="M260.7,378.8c-0.3,5.6-1.6,6.8-7.2,6.8c-12.7,0-25.4,0-38.1,0c-5.9,0-7.3-1.4-7.6-7.6
			c1.6-5.2,3.7-10,8.5-13.2c7.3-4.7,16.5-3.8,22.9,2.5c1.4,1.4,2.4,2,4.7,1.5C250.7,367.4,256.2,370.8,260.7,378.8z"/>
		<path id="XMLID_222_" class="st4" d="M321.1,271.5c-7.3-3.6-9.9-11.1-7.4-17.7c3.1-8.5,16-11.6,22.7-3.6c6.2,9.6,2.1,19.8-8.6,22
			C325.4,272.6,323.3,271.2,321.1,271.5z"/>
		<path id="XMLID_221_" class="st3" d="M200.1,377.3c0.1,7.2-1,8.3-8.1,8.3c-6.1,0-12.1,0-18.2,0c-6.3,0-7.7-1.3-7.9-7.6
			c4.5-11.1,16-15.4,26.6-9.9C196.3,370.1,198.8,373.2,200.1,377.3z"/>
		<path id="XMLID_220_" class="st4" d="M62.1,61.8c-6.3,0-10.6-4.5-10.5-10.8c0.1-5.8,4.9-10.6,10.5-10.6c5.9,0,10.8,4.9,10.8,10.9
			C73,57.4,68.4,61.9,62.1,61.8z"/>
		<path id="XMLID_219_" class="st4" d="M347.5,225.3c-5.7-6.3-4.5-11.9,3.4-16.2c7.2,0.2,10.4,2.4,11.3,7.7c0.6,3.7-0.7,6.8-3.7,8.9
			C355,228.2,351.1,227.7,347.5,225.3z"/>
		<path id="XMLID_218_" class="st4" d="M72.1,97.6c-0.1,4-3.1,6.8-7.2,6.8c-4-0.1-7.2-3.5-7-7.5c0.2-3.8,3.6-7.1,7.3-7
			C69.3,90.1,72.3,93.5,72.1,97.6z"/>
		<path id="XMLID_217_" class="st5" d="M158.2,309.1c3.7-3.9,7.3-7.8,11.8-12.6c0,6.6,0,12.1,0,17.6
			C166,312.5,161.9,311.3,158.2,309.1z"/>
		<path id="XMLID_216_" class="st6" d="M368,253.1c-0.3,2.9-1.9,4.7-5.1,4.7c-3.3,0-5-2.2-5-5.1c0-3,2.1-5.1,5.2-5
			C366,247.8,367.9,249.7,368,253.1z"/>
		<path id="XMLID_215_" class="st6" d="M33.7,78.1c0.2-2.9,1.6-4.5,4.3-4.3c2.7,0.1,4.2,1.6,4.2,4.3c-0.1,2.7-1.7,4.2-4.4,4.1
			C35.2,82.1,33.8,80.5,33.7,78.1z"/>
		<path id="XMLID_214_" class="st7" d="M229.9,300.5c-0.1,7.3-5.9,12.8-13.1,12.6c-7-0.2-12.6-6-12.5-12.9c0-7.3,5.7-12.9,13-12.8
			C224.6,287.5,230,293.1,229.9,300.5z"/>
		<path id="XMLID_213_" class="st4" d="M319.5,216.3c0,4.5-2.5,6.8-6.9,6.7c-4.1-0.1-7-3-6.9-7s3-6.8,7.1-6.8
			C316.9,209.2,319.5,212,319.5,216.3z"/>
		<path id="XMLID_212_" class="st8" d="M177.2,262c-0.1-0.5-0.2-1-0.3-1.5c-1-1.8-1.1-3.8-1.1-5.7c0-3,0.3-5.9-3.6-7.2
			c-1.9-0.6-1.1-2.9-0.9-4.6c0.9-7.5-0.5-14.3-5.9-20c-4.7-4.6-9.7-8.6-16.6-9.5c-10.5-1.4-20.7,4-25.1,13.6
			c-0.5,1.2-0.8,2.4-1.6,3.5c-0.8,1.1-1.6,1.1-2.2-0.2c-0.5-1.4-0.5-2.8-0.5-4.2c-1.1-51.8,4.8-102.8,16-153.2
			c0.3-1.5,0.6-3.1,1.6-4.3c0.6-0.7,1.4-1.1,2.2-1.1c4.2-0.2,6.6-1.9,6.3-6.6c-0.2-2.5,1.9-2.9,3.8-3c4.8-0.1,9.7-0.3,14.5,0
			c36.1,2.4,71.4,9.3,105.7,20.6c5.7,1.9,11.2,4.2,16.7,6.4c14.6,6,19.5,23.2,9.6,35.5c-6.3,7.8-13.7,14.7-21.3,21.3
			c-0.4,0.2-0.9,0.2-1.3,0.2c-6.9-4.2-14-7.8-22.5-7.8c-10.3,0-19.4,3.1-27,10.2c-15.2,15.9-16.9,33.7-5.1,51.8c1,2,0.2,3.6-1.1,5
			c-2.3,2.5-2.8,5.4-2.8,8.6c0,13.3,0.1,26.6,0,39.9c0,3.8-0.2,7.7-4.3,9.9c-2-1.2-1.5-3.2-1.6-4.9c-0.1-5.8-0.1-11.6,0-17.5
			c0.1-3-1-3.8-3.7-2.6c-0.1-1.7,0.1-3.5-1.2-4.9c-1.2-1.5-1.6-3.3-2-5.1c-0.6-2.7-2.2-3.3-4.2-1.6c-3.1,2.7-6.4,5.1-9.1,8.3
			c-2.6,3-3,6.6-3,10.3c0,20.8,0,41.6,0,62.4c0,1.8,0.1,3.7-0.2,5.5c-0.3,1.6-0.5,3.5-2.8,3.6c-1.3-1.4-1.2-3.1-1.2-4.8
			c0.3-14-0.9-28,0.8-42c0,0,0-0.2,0-0.4C182.7,260.6,182.2,260.2,177.2,262z"/>
		<path id="XMLID_211_" class="st9" d="M250.3,28.7c19.2,4.7,38.1,10.3,56.1,18.7c12.2,5.7,24.2,11.8,36.1,19.9
			c-9.6,1.2-14.2,6.8-16.4,14.9c-1.8,0.5-3-0.6-4.3-1.4c-39-24.6-81.9-37-127.5-41.8c-15.2-1.6-30.3-1.6-45.5-1.4
			c-4.7,0.1-9.3,0.7-14,1.3c-2.5,0.3-5.1,0.6-7.6-0.1c-0.5-0.2-0.9-0.5-1.2-1c-1.2-5.5,0.9-10.3,5.6-13c2.5-1.4,5.3-2,8.1-2.5
			c20.9-3.4,41.8-3.3,62.8-1.6c6.2,0.5,12.3,1.6,18.5,2.4c1.2,0.2,2.4,0.5,3.6,0.4c2.8,0.1,5.3,1.4,8.1,1.3c2.6,0.6,5.2,1,7.8,1.7
			c1.5,0.1,3,1,4.6,0.9C246.8,28.3,248.8,27.6,250.3,28.7z"/>
		<path id="XMLID_210_" class="st10" d="M274.1,141.8c6.1-6.2,11.9-12.6,18.2-18.4c13.2-12.1,7.6-32.1-7.3-37.7
			c-25.8-9.8-52.2-16.7-79.2-21.4c-18.3-3.2-36.6-5.2-55.2-5c-2.3,0-4.8-0.7-3.8,3.6c0.8,3.7-3.2,5.9-8.9,5.6
			c-0.2-0.2-0.3-0.5-0.2-0.7s0.1-0.3,0.2-0.3c0.7-0.5,1.5-0.6,2.3-0.9c4.1-1.6,5-4.7,2.4-8.2c-0.7-1-1.7-1.8-2.1-3.1
			c-0.3-3,0.1-5.8,2.4-8c2.6-1.2,5.3-0.7,8-0.8c41.4-1.3,81.6,4.9,120.6,18.8c20,7.1,38.6,17,56.4,28.6c3,2,3.4,3,0.4,5.9
			c-15.1,14.8-29.8,30-44.6,45c-1.1,1.1-2.3,2.1-3.4,3.2C276.8,147.3,275.7,144.3,274.1,141.8z"/>
		<path id="XMLID_209_" class="st11" d="M225.7,225.9c0-4.3,0.1-8.4,0-12.5c0-1.7,0.7-2.9,1.8-4.1c21.2-22,42.4-44,63.5-66
			c14-14.7,28.3-29.1,42.9-43.3c2.5-2.4,3.1-4.1,0.2-6.9c-4.9-4.7-5-11.3-1-16.6c3.9-5.2,10.5-6.7,16.3-3.6c3.3,1.7,6.1,4.2,8.7,6.8
			c2.6,2.6,2.1,6.1-1,9.4c-9.2,9.7-18.5,19.3-27.7,28.9c-27.4,28.8-54.8,57.6-82.2,86.4c-6.3,6.6-12.4,13.3-18.6,19.9
			C228,225,227.4,225.9,225.7,225.9z"/>
		<path id="XMLID_208_" class="st12" d="M137.7,67.8c0,0.2,0.1,0.5,0.2,0.7c-4,16-6.8,32.3-9.5,48.6c-3.2,19.2-5.2,38.6-6.6,58
			c-1.4,18.8-1.3,37.6-0.9,56.5c1.9,2.4,1,5.3,1.2,8c0.2,2.1,0.7,4.1,0.8,6.2c0.4,14.3,2.3,28.4,4.2,42.5c0.3,2,0.8,3.9,0.8,5.9
			c0,0.5-0.1,0.9-0.2,1.4c-1.1,2-2.2,4.1-5,4c-2.9-11.7-4.5-23.6-5.9-35.6c-3.3-27.4-4.2-54.8-3.2-82.4
			c1.5-40.4,6.8-80.4,15.2-119.9c0.1-0.5,0.5-1,0.7-1.5c3-2,3.9,0.2,4.7,2.5C134.4,64.9,137,65.7,137.7,67.8z"/>
		<path id="XMLID_207_" class="st13" d="M127.4,37.9c13.3-0.8,26.5-2,39.8-1.8c18.1,0.2,36.1,2.2,53.9,5.4
			c21.6,3.8,42.7,9.8,63,18.3c14.7,6.2,28.6,13.7,41.9,22.3c0.1,1.8,0.4,3.6-0.3,5.7c-6-3.4-11.9-6.7-17.8-10
			c-23.2-12.9-47.9-21.6-73.8-27.2c-21.7-4.7-43.6-7.6-65.9-7.9c-12.6-0.1-25.1,0.3-37.5,1.7C128.2,43.1,126,41.4,127.4,37.9z"/>
		<path id="XMLID_206_" class="st14" d="M223,194.1c-0.3-0.3-0.7-0.7-1-1c-1.8-2.5-3.1-5.3-4.1-8.2c-4.9-19.6,6.3-38.6,25.6-42.7
			c7.3-1.6,14.7-1.4,21.5,2.4c1.2,0.6,2.4,1.1,3.2,2.2c0.5,1.5-0.6,2.4-1.4,3.3c-10.3,10.4-20.7,20.6-30.6,31.3
			c-2.5,1.5-4.4,3.5-6,5.9C228,189.8,226,192.5,223,194.1z"/>
		<path id="XMLID_205_" class="st10" d="M182.9,313.3c2.1-1.7,1.8-4,1.7-6.3c0-22,0.1-43.9-0.1-65.9c-0.1-6.1,2.3-10.5,7-14.1
			c2-1.5,3.8-3.4,5.6-5.2c1.3-1.4,2.8-1.9,4.6-1.3c1.7,0.5,1.6,2.1,1.7,3.5c0.2,2,0.5,3.9,0.7,5.9c-6,1.8-11.2,8.5-11.2,14.5
			c0,23,0.1,45.9,0.1,68.9c0,6.8-3.4,9.7-10.2,9.2c-1.8-1.8-2.1-4-1.8-6.4C181.3,314.8,181.6,313.7,182.9,313.3z"/>
		<path id="XMLID_204_" class="st10" d="M126.6,296.1c0-0.3,0.1-0.5,0.2-0.7c1-3.9,4.3-6.1,6.9-8.8c0.7-0.2,1.4,0,2.1,0.1
			c4.7,0.6,7-1.4,6.9-6.1c0-1.1-0.4-2.2,0-3.4c3.3-4.6,8.1-7.9,11-12.8c-4.1,0.6-8.5,0.9-12.7-0.5c-1.4-0.5-3.6-0.4-2.9-3.1
			c0.5-0.3,1-0.6,1.6-0.5c7,1.4,13.4-0.5,19.7-3.2c0.6,0,1.2,0.2,1.6,0.7c0.2,0.7,0.5,1.1,1.3,0.5c1.9-1.4,3.6-3,4.9-5
			c0.1-0.2,0.7-0.4,0.3-0.7c-0.1-0.1-0.7,0.3-1.1,0.3c-0.7-0.3-0.9-0.9-0.9-1.6c1-4,3.4-7.5,3.6-11.7c0.2-4.8-0.3-9.3-2.5-13.6
			c-0.6-1.2-1.7-2.4-0.7-3.9c6.5,5.9,7.7,13.4,6.6,21.6c-0.2,1.8-1.4,3.4,1.9,3.3c1.8,0,2.7,1.8,2.6,3.8c0,3.3-0.1,6.5-0.1,9.8
			c-2.5-2.1-3.6,0.4-4.8,1.6c-14.4,15-28.7,30-43,45.1C125.7,304.1,126.1,300.1,126.6,296.1z"/>
		<path id="XMLID_203_" class="st11" d="M172.8,268.6c0,4.2,0,8.4,0,12.7c0,1.4-0.7,2.3-1.6,3.3c-11.9,12.5-23.9,25-35.8,37.7
			c-2.3,2.4-3.3,2.4-5.2-0.5c-2.5-3.9-2.8-6.6,0.7-10.3c13.8-14.3,27.3-28.8,40.9-43.3C172.1,268.3,172.5,268.5,172.8,268.6z"/>
		<path id="XMLID_202_" class="st15" d="M210.2,259.5c2.6-2.6,3.4-5.7,3.4-9.2c-0.1-13.6,0-27.2-0.1-40.8c0-3.8,0.6-7,3.7-9.4
			c1.2-0.9,1.8-2.2,1.6-3.7c0.6,0.8,1.1,1.6,1.9,2.3c3.9,3.2,7.3,6.3,1.2,10.6c-0.4,0.3-0.6,1.3-0.6,2c0.2,7.4-0.1,14.7,0.3,22.1
			c0.4,8.2,0.6,16.4,0.1,24.6c-0.4,7-3.8,9.1-11.4,8.2c-1.6-1.6-1.3-3.5-0.9-5.4C209.6,260.2,209.9,259.8,210.2,259.5z"/>
		<path id="XMLID_201_" class="st16" d="M235.7,181c10.2-11.9,21.8-22.5,32.6-33.8c0.3-0.5,0.7-0.6,1.2-0.1c0.1,0,0.3,0.1,0.4,0.1
			c5,5.3,5.1,5.4-0.2,10.7c-10,10.2-19.3,21.1-29.6,31C238.8,186.1,238.1,183.1,235.7,181z"/>
		<path id="XMLID_200_" class="st17" d="M222.1,23.5c-19.2-2.3-38.4-3.5-57.7-2.7c-8.8,0.4-17.5,1.3-26.2,2.9
			c-8.5,1.5-11.4,5.3-11.4,14.1c-4.8,0.7-8.4-2.2-8.7-6.9c0.9-5.6,4.2-9,10-9.9c22.6-3.8,45.3-4.3,68.1-2.1
			c9.3,0.9,18.4,2.5,27.6,3.8C223.9,24.2,222.9,23.8,222.1,23.5z"/>
		<path id="XMLID_199_" class="st12" d="M182.9,313.3c-0.3,0.8-0.6,1.6-0.9,2.4c-0.9,1.8-2.1,2.9-4.2,1.8c-1-1-0.8-2.4-0.8-3.6
			c0.1-17.3,0.2-34.6,0.3-51.9c0.6-0.8,1.2-1.5,1.9-2.3c0.8-0.9,1.7-1.7,2.9-1.3c1.4,0.5,1.8,1.7,1.7,3.1c-0.2,3.7-0.7,7.3-0.7,11
			C182.9,286.1,183,299.7,182.9,313.3z"/>
		<path id="XMLID_198_" class="st18" d="M265.6,145.4c-11.9-4.5-23.4-4.3-33.8,3.5c-11.5,8.6-15.9,20.2-13.1,34.3
			c0.1,0.7,0.1,1.4,0.2,2.1c0.4,0.9,0.7,1.8-0.9,1.8c-6.3-13.2-2.8-29,8.7-39.2c10.9-9.7,27.3-11,39.8-3.2
			C266.6,145.3,266.5,145.8,265.6,145.4z"/>
		<path id="XMLID_197_" class="st19" d="M210.2,259.5c-0.1,0.2-0.2,0.5-0.2,0.7c-1.1,1.5-2.3,2.3-4.1,1c-1.4-8.8-0.7-17.6-0.6-26.5
			c0.3-0.5,0.6-0.9,0.9-1.4c0.8-1,1.5-2.3,3-1.8c1.4,0.5,0.9,1.9,0.9,3C210.3,242.9,210.2,251.2,210.2,259.5z"/>
		<path id="XMLID_196_" class="st20" d="M223.9,144.6c5-7,12.6-9.5,20.3-10.9c10-1.8,19.3,0.8,27.8,6.5c0.6,0.4,0.9,1.1,1.4,1.6
			c0.5,1-0.1,1.5-0.9,1.8c-7.4-4.8-15.2-8.1-24.2-7.9c-8.1,0.2-15.2,2.7-21.8,7.3C225.6,143.7,224.8,144.1,223.9,144.6z"/>
		<path id="XMLID_195_" class="st21" d="M133.3,63.6c-0.8-1.8-1-4.2-4-3.4c-0.2-3.4,1.3-6.5,1.8-9.8c0.2-1.3,1-2.1,2.5-2.3
			c3-0.5,6.1-0.9,9.2-0.7c-0.6,2.8-1.2,5.6-1.8,8.4C137,56.9,134.6,59.6,133.3,63.6z"/>
		<path id="XMLID_194_" class="st16" d="M223,194.1c1.8-2.8,4.2-5,6.8-7.1c2.4,2.4,5.5,3,8.7,3.5c-2,2.3-4.2,4.5-6,7.1
			c-2.6,3.8-5.1,2.5-7.4,0C224.2,196.7,222.9,195.8,223,194.1z"/>
		<path id="XMLID_193_" class="st22" d="M238.5,190.5c-3.9,1.4-7,0.8-8.7-3.5c1.1-2.9,3.1-4.9,5.9-6.1c4.3,1,4.6,4.3,4.4,7.9
			C239.5,189.4,239,190,238.5,190.5z"/>
		<path id="XMLID_192_" class="st23" d="M197.7,255.6c1-5.9-3.3-12.9,3.4-17.7C200.5,243.8,204.7,250.6,197.7,255.6z"/>
		<path id="XMLID_191_" class="st24" d="M118.1,30.9c1.4,4.2,4.7,6,8.7,6.9c0.2,0,0.4,0.1,0.6,0.1c0,2.8,2.1,4.5,3.4,6.6
			C122.1,44.7,116.6,38.8,118.1,30.9z"/>
		<path id="XMLID_190_" class="st25" d="M126.6,296.1c0.9,3.7,1.7,7.4,2.6,11.1c-1.1,1.4-2.3,2.7-3.7,4.6c-1.5-4.4-2.3-8.3-2.8-12.3
			C123.9,298.4,125.2,297.2,126.6,296.1z"/>
		<path id="XMLID_189_" class="st26" d="M272.5,143.7c0.3-0.6,0.6-1.2,0.9-1.8c0.2,0,0.5,0,0.7,0c2.7,1.4,3.8,4.4,6.1,6.1
			c-0.9,1.4-1.9,2-3.2,0.5C275.5,146.9,274,145.3,272.5,143.7z"/>
		<path id="XMLID_188_" class="st27" d="M177.8,317.5c1.6-0.1,2.8-1.1,4.2-1.8c0.3,2.2,0.6,4.5,0.9,6.7
			C180.3,321.8,178.5,320.2,177.8,317.5z"/>
		<path id="XMLID_187_" class="st28" d="M206,261.2c1.5,0.4,2.7-0.6,4.1-1c0.1,2,0.2,3.9,0.3,5.9C207.3,265.9,206.8,263.4,206,261.2
			z"/>
		<path id="XMLID_186_" class="st29" d="M217.9,187.1c0.7-0.4,0.8-1.1,0.9-1.8c1.2,2.6,2.6,5,3.2,7.8
			C219.4,191.9,218.7,189.4,217.9,187.1z"/>
		<path id="XMLID_185_" class="st30" d="M240.9,26.6c-2.6-0.1-5.2-0.3-7.7-1.5c-0.3-0.2-0.4-0.3-0.3-0.5c0.1-0.2,0.2-0.2,0.3-0.2
			c2.6,0.2,5.2,0.7,7.7,1.7C240.9,26.3,240.9,26.5,240.9,26.6z"/>
		<path id="XMLID_184_" class="st31" d="M233.2,24.4c0,0.2,0,0.5,0,0.7c-2.8-0.3-5.6-0.7-8.5-1c0.3-2,1.6-1,2.6-0.8
			C229.3,23.7,231.3,24.1,233.2,24.4z"/>
		<path id="XMLID_183_" class="st32" d="M227.3,23.4c-0.9,0.2-1.9-0.2-2.6,0.8c-1,0.1-2,0.2-2.7-0.6c0.6-0.3,1.2-0.6,1.8-0.9
			C225.1,22.4,226.3,22.5,227.3,23.4z"/>
		<path id="XMLID_182_" class="st33" d="M240.9,26.6c0-0.2,0-0.3,0-0.5c1.6-0.4,2.9,0.5,4.3,0.8c0.3,0.2,0.4,0.3,0.3,0.5
			c-0.1,0.2-0.2,0.2-0.3,0.2C243.6,27.8,242.2,27.6,240.9,26.6z"/>
		<path id="XMLID_181_" class="st34" d="M245.2,27.6c0-0.2,0-0.5,0-0.7c1.8,0.4,3.8,0.2,5.2,1.7C248.6,28.4,246.8,28.7,245.2,27.6z"
			/>
		<path id="XMLID_180_" class="st35" d="M265.6,145.4c0.3-0.2,0.6-0.5,0.8-0.7c1.3,0.4,2.4,1.2,3.1,2.4c-0.4,0-0.8,0.1-1.2,0.1
			C267.4,146.6,266.5,146,265.6,145.4z"/>
		<path id="XMLID_179_" class="st36" d="M233.4,368.8c2.5,2.2,4.3,4.8,5.6,8c3.8-2.8,7.8-4.4,12.2-1.7c0.9,0.6,1.8,1.3,2.5,2.2
			c0.6,0.7,1.6,1.5,1.2,2.5c-0.5,1.2-1.8,0.6-2.7,0.6c-12,0-24.1,0-36.1,0c0-0.8,0.5-1.1,1.2-1.4c5.5-1,11.2,0.3,17.1-0.8
			c-1.3-3.2-3.6-4.5-6.3-5.6c-1.5-0.6-3.4-0.8-3.6-3c1.3-1.4,3-1.5,4.7-1.5C230.6,368.4,231.9,369.2,233.4,368.8z"/>
		<path id="XMLID_178_" class="st37" d="M229.8,368.8c-1.7,0.3-3.3,0.6-5,0.9c-0.8,1.4-2.1,1.9-3.4,2.4c-2.6,0-4.1,3.2-7,2.6
			c3.2-6.9,9.5-9.4,17.1-6.7C231.5,369.5,230.6,369,229.8,368.8z"/>
		<path id="XMLID_177_" class="st38" d="M214.4,374.6c2.4-1,4-3.7,7-3.4c-0.6,3.2-2.7,5.8-4.5,8.4c-0.3,0.3-0.5,0.5-0.8,0.8
			C212.1,380.1,212.1,380,214.4,374.6z"/>
		<path id="XMLID_176_" class="st39" d="M229.8,368.8c0.6-0.3,1.1-0.6,1.7-0.8c0.6,0.3,1.3,0.6,1.9,0.8
			C232.2,369.9,231,369.7,229.8,368.8z"/>
		<path id="XMLID_175_" class="st40" d="M190.8,372.9c0.4,0.3,0.9,0.6,1.3,1c1.5,1.5,3.4,3.2,2.6,5.4c-0.9,2.3-3.5,1.1-5.3,1.1
			c-5,0.2-10.1,0-15.1-0.1c0.1-0.8,0.6-1.1,1.2-1.4c3.9-0.9,7.9,0.1,11.7-0.7c0.9-2.4-3.4-3.4-1.3-5.9
			C187.6,371.8,189.2,372.3,190.8,372.9z"/>
		<path id="XMLID_174_" class="st41" d="M175.3,379.6c-0.3,0.2-0.6,0.5-0.9,0.7c-3.6,0.6-4-1-2.6-3.7c1.1-2.2,2.9-3.7,5.3-4.6
			c2.3-0.4,4.6-1.1,6.8,0c0.8,1.3,0.1,2.2-1,2.6C179.9,375.7,177.8,378,175.3,379.6z"/>
		<path id="XMLID_173_" class="st42" d="M183.8,372.9c-2.1-1.6-4.6-0.7-6.9-0.8c4.8-2.3,9.4-2.1,13.8,0.9c-1.7,0-3.5,0-5.2,0
			C184.9,373.4,184.4,373.4,183.8,372.9z"/>
		<path id="XMLID_172_" class="st43" d="M219.7,292.9c0.3,0.2,0.7,0.4,1,0.6c3.6,6.7,0.4,12.4-7,12.4
			C209.6,300.4,212.1,295,219.7,292.9z"/>
		<path id="XMLID_171_" class="st44" d="M213.6,305.5c7.3-1.7,8.8-4.3,7.2-11.9c3.2,2,4.7,4.8,3.8,8.5c-0.7,3.1-2.9,4.9-6,5.8
			c-2.3,0.6-4.1,0.1-5.7-1.5C212.7,305.6,212.9,305.3,213.6,305.5z"/>
		<path id="XMLID_170_" class="st45" d="M213.6,305.5c-0.3,0.3-0.5,0.5-0.8,0.8c-3.6-2.9-4.4-5.9-2.6-9.4c1.7-3.6,4.9-4.9,9.5-3.9
			c-0.5,0.9-1.4,1.2-2.3,1.6C213.1,296.6,212.1,299.7,213.6,305.5z"/>
		<path id="XMLID_169_" class="st1" d="M167.5,140.2c-16.5-5.2-26.7-15.9-29.4-33.3c-3.2-19.7,13.3-40.8,33.2-42.7
			c11.3-1,21.3,1.8,30.3,8.6c17.5,12.6,18.6,40.4,4.6,55.5C195.6,139.7,182.9,144.5,167.5,140.2z"/>
		<path id="XMLID_168_" class="st7" d="M165.8,222c5.8,9.9,6.2,19.8,0,29.7c-1,3-3,5-6,6c-6.9,4.3-14.3,5-22.1,3.4
			c-5.6-0.3-13.5-6.8-15.3-12.8c-0.3-0.9-0.4-1.9-0.8-2.8c-1.2-4.6-1.1-9.2-0.8-13.9c2.7-8.3,7.5-15,16-17.9
			C148.3,209.8,157.9,213.2,165.8,222z"/>
		<path id="XMLID_167_" class="st15" d="M167.5,140.2c7.8,1.1,15.5,1,22.9-2c25.7-10.4,32.7-43,13.4-62.9c-0.8-0.8-1.5-1.7-2.2-2.5
			c4.3,1.7,7,5.2,9.5,8.7c15.3,21.9,6.6,49.9-18.4,59.1C184.4,143.7,175.8,144,167.5,140.2z"/>
		<path id="XMLID_166_" class="st46" d="M144.5,173.5c-5.8-1.1-8.9-3.8-9.3-8.3c-0.3-4,1.1-7.3,4.9-9.1c4.6-2.1,8.5-0.8,11.8,2.8
			c2.7,3,2.9,6.4,1.1,9.8C151.3,172,148.7,174.3,144.5,173.5z"/>
		<path id="XMLID_165_" class="st47" d="M268.2,106.2c-4.1-1-6.3-3.9-6.5-7.9c-0.2-3.3,1.6-6,4.7-7.5c4-1.9,7.4-0.4,10.3,2.5
			c2.5,3.1,2.9,6.5,0.8,9.8C275.4,106.5,271.9,107.1,268.2,106.2z"/>
		<path id="XMLID_164_" class="st48" d="M188,208.5c-3.2-1.1-4.9-3.5-4.8-6.7c0.1-2.8,1.5-5.1,4.4-6.2c3.4-1.3,6-0.1,8.3,2.4
			c2.1,2.7,2.5,5.7,0.5,8.5C194.3,209.4,191.1,209,188,208.5z"/>
		<path id="XMLID_163_" class="st49" d="M144.5,173.5c7.8-1.8,10.3-6.6,7.5-14.5c3.7,3,4.3,6.5,2.1,10.7
			C152.1,173.4,148.7,174.8,144.5,173.5z"/>
		<path id="XMLID_162_" class="st50" d="M268.2,106.2c8.2,0.7,11.5-5.8,8.5-12.9c3.6,3,4.4,6.2,2.5,9.6
			C277,106.7,273.2,107.8,268.2,106.2z"/>
		<path id="XMLID_161_" class="st51" d="M188,208.5c7.7,0.2,10.1-3,7.9-10.5c3.1,2.2,4.1,4.9,2.1,8.3
			C196.1,209.5,192.8,210.2,188,208.5z"/>
		<path id="XMLID_160_" class="st52" d="M315,59.6c-0.5,2.4-1.7,4.5-4.3,4.3c-2.3-0.2-4.2-1.6-4.1-4.4c0.1-2.3,1.4-3.6,3.7-3.7
			C312.9,55.7,314.5,57,315,59.6z"/>
		<path id="XMLID_159_" class="st52" d="M316.2,72.7c-1.3-0.3-1.9-1.1-1.9-2.4c0-1.2,0.7-1.8,1.9-1.7c1.3,0.1,2.2,0.7,2.2,2.1
			C318.3,72,317.5,72.7,316.2,72.7z"/>
		<path id="XMLID_158_" class="st53" d="M133.3,63.6c0.4-6.6,1.4-7.7,7.8-7.9c2.9,1.8,5.2,4,3.9,7.8c-1.1,3.4-3.8,4.6-7.2,4.3
			C135.7,67,133.9,65.9,133.3,63.6z"/>
		<path id="XMLID_157_" class="st8" d="M121.6,245.5c3.4,7.3,8.6,12.7,16.1,15.6c5.6,3.9,11.8,2.8,18.9,1.6
			c-4.5,5.7-8.6,10.5-13.6,14.6c-1.2,0-2.1-0.8-3.1-1.2c-2.7-1.3-5.3-0.9-7.3,1.2s-1.7,4.6-0.3,7c0.5,0.8,1.2,1.6,1.1,2.7
			c-1.1,3.7-4.8,5.3-6.7,8.4c-2.4-15.4-4.3-30.9-5.2-46.4C121.5,247.8,121.6,246.6,121.6,245.5z"/>
		<path id="XMLID_156_" class="st54" d="M244.3,152.6c0.2-3.8,2.7-5.8,6.9-5.6c3.9,0.2,6,2.5,5.8,6.3c-0.1,3.7-3,6.6-6.5,6.5
			C247,159.7,244.1,156.5,244.3,152.6z"/>
		<path id="XMLID_155_" class="st55" d="M229.9,170.9c0.3,2.5-1.4,3.8-3.7,4c-2.5,0.2-3.9-1.6-3.9-4c0-2.3,1.3-4,3.5-4
			C228.1,166.8,229.9,167.9,229.9,170.9z"/>
		<path id="XMLID_154_" class="st47" d="M133.4,287c-4.4-2.8-4-8.1-1.5-10.7c3-3.2,7.1-2.8,11.1,1c1.3,3.2,1.5,6.3-1.1,8.9
			C139.4,288.8,136.4,288.4,133.4,287z"/>
		<path id="XMLID_153_" class="st56" d="M166.7,252.7c0.8-1.2,1.6-2.3,3.4-3c-1.8,4.7-4.7,8-8.7,10.2c-1.7,0.9-0.8-0.6-0.7-1.2
			C162.2,256.1,164.3,254.2,166.7,252.7z"/>
		<path id="XMLID_152_" class="st57" d="M166.7,252.7c-1.6,2.4-3.6,4.3-5.9,6c-0.3-0.3-0.7-0.6-1-1c2-2,4-4,6-6
			C166.1,252.1,166.4,252.4,166.7,252.7z"/>
		<path id="XMLID_151_" class="st58" d="M216.9,379.6c0.2-3.5,2.5-5.8,4.5-8.4c1.1-0.5,2.3-1.1,3.4-1.6c0.6,1.5,1.9,1.3,3.1,1.7
			c3.9,1.2,7,3.5,8.3,8.3C229.7,379.6,223.3,379.6,216.9,379.6z"/>
		<path id="XMLID_150_" class="st59" d="M239.1,379.5c4-2.9,7.1-2.3,11.1,0C246.3,379.5,243.1,379.5,239.1,379.5z"/>
		<path id="XMLID_149_" class="st60" d="M183.8,372.9c0.6,0,1.1,0,1.7,0.1c0.1,0.1,0.1,0.3,0.2,0.4c1.2,2,4.8,3.1,3.5,5.6
			c-1,1.9-4.1,0.6-6.3,0.7c-2.5,0.1-5.1,0-7.7,0C176.7,375.5,180.6,374.7,183.8,372.9z"/>
		<path id="XMLID_148_" class="st14" d="M190.6,71.3c8.9,3.8,14.9,10.3,18,19.5c4.6,15.4-8.8,34.2-26.3,38.9
			c-10.8,2.9-20.7,0.9-30.1-4.7c-1.5-0.8-2.5-2.1-3.2-3.5c-12.8-24.4,4.4-50.2,26.8-52.3c3.6-0.1,7.2,0,10.8,0.7
			C187.9,70.4,189.4,70.4,190.6,71.3z"/>
		<path id="XMLID_147_" class="st16" d="M152.2,124c4.8,2,9.3,4.3,14.6,5.3c18.4,3.5,37.7-9.8,41.4-28.4c0.7-3.4,0.2-6.8,0.4-10.1
			c7.6,18.3-4.7,41.2-24.2,45.2c-8.6,1.8-16.7,0.9-24.5-3.2c-0.6-1-1.8-1.3-2.8-1.9C155.6,128.5,151.7,127.8,152.2,124z"/>
		<path id="XMLID_146_" class="st61" d="M175.3,70.1c-17.2,3.3-28.2,15.2-29.7,32.4c-0.6,6.6,1.8,12.8,4.1,18.9
			c-2.1,0.5-2.3-1.7-3.5-2.5c-11.7-18.8-0.1-45.3,22-50.3c5.5-1.2,11-1.4,16.4,0.1c-1,2.2-2.9,0.7-4.3,1
			C178.7,70.1,176.9,69.5,175.3,70.1z"/>
		<path id="XMLID_145_" class="st62" d="M146.2,119c1.2,0.8,2.4,1.6,3.5,2.5c0.8,0.9,1.6,1.7,2.4,2.6c1.2,2.7,3.6,4.5,5.5,6.7
			c-0.3,0.4-0.7,0.5-1.1,0.1C152,127.8,148.3,124,146.2,119z"/>
		<path id="XMLID_144_" class="st63" d="M175.3,70.1c2.9-1.9,6.4,0.4,9.3-1.4c1.1,0.3,2.3,0.6,3.4,0.9c0.1,0.7-0.1,1.2-0.9,0.8
			C183.2,70.3,179.2,70.2,175.3,70.1z"/>
		<path id="XMLID_143_" class="st64" d="M187.1,70.4c0.3-0.3,0.6-0.5,0.9-0.8c0.9,0.5,2.3,0.2,2.6,1.6
			C189.4,71.1,188.1,71.4,187.1,70.4z"/>
		<path id="XMLID_142_" class="st65" d="M156.5,130.8c0.4,0,0.7-0.1,1.1-0.1c1.1,0.2,2,0.8,2.2,2
			C158.6,132.4,157.4,131.9,156.5,130.8z"/>
		<path id="XMLID_141_" class="st14" d="M154.9,218.8c4.8,1.7,7.7,5.2,9.4,9.9c2.5,9.3-0.9,16.5-8.3,21.8c-8.3,6-16.9,5.4-25.3-0.2
			c-1.7-1-2.5-2.7-3.2-4.5c-2.1-7.5-0.9-14.4,3.9-20.4c4.8-6,11.1-9,19-8.1C151.8,218.1,153.6,217.7,154.9,218.8z"/>
		<path id="XMLID_140_" class="st16" d="M130.8,249.3c5.8,3.2,11.6,5.4,18.5,3.4c8.3-2.5,14.9-10.7,15-19.4c0-1.5,0-3.1,0.1-4.6
			c4.2,8,2.3,15.4-3.1,21.9c-5.3,6.4-12.5,8.4-20.6,6.8c-1.9-0.4-3.7-1.3-5.5-2c-1-0.9-2-1.8-2.9-2.7
			C131.4,251.8,129.8,251.1,130.8,249.3z"/>
		<path id="XMLID_139_" class="st66" d="M150.4,217.9c-15.5,0.3-24.3,10.8-22.1,26.3c0.1,0.6,0,1.1,0,1.7c-2.1,1.3-1.7-1.1-2.5-1.7
			c-5-13.3,3.1-26.1,18.1-28.4c1.1-0.5,2.1-0.3,3.2,0c1.7,0.4,3.4,0.8,5.2,1.2C152.2,218.6,151.2,218.1,150.4,217.9z"/>
		<path id="XMLID_138_" class="st67" d="M125.8,244.2c1,0.4,1.3,1.8,2.5,1.7c0.8,1.1,1.1,2.7,2.5,3.5c0.6,1.1,1.3,2.2,1.9,3.3
			c0.4,0.4,0.3,0.7-0.1,1.1C129.2,251.4,126.7,248.4,125.8,244.2z"/>
		<path id="XMLID_137_" class="st68" d="M150.4,217.9c0.6-0.3,1.2-0.5,1.8-0.8c1.1,0.3,2.4,0.2,2.7,1.7
			C153.4,218.4,151.7,219,150.4,217.9z"/>
		<path id="XMLID_136_" class="st69" d="M147,215.9c-1.1,0-2.1,0-3.2,0C144.9,213.9,146,215,147,215.9z"/>
		<path id="XMLID_135_" class="st70" d="M132.6,253.8c0-0.4,0-0.7,0.1-1.1c1,0.7,2.1,1.4,2.5,2.7
			C134.1,255.2,133.2,254.7,132.6,253.8z"/>
		<path id="XMLID_134_" class="st71" d="M148.6,161.3c0.7,6.7-1.5,8.6-8.2,6.9c-0.1-2.1-0.4-4.3,1.2-6
			C143.6,160,145.9,159.2,148.6,161.3z"/>
		<path id="XMLID_133_" class="st72" d="M148.6,161.3c-5.3-0.7-5.9-0.3-8.2,6.9c-2.3-3.7-2.2-6.7,0.6-8.4
			C143.8,158.1,146.6,158.1,148.6,161.3z"/>
		<path id="XMLID_132_" class="st73" d="M272.4,94.3c1.6,2.5,1.8,5.1-0.7,6.8c-1.9,1.3-4.4,1.8-6-1
			C266.5,96.5,268.3,94.1,272.4,94.3z"/>
		<path id="XMLID_131_" class="st74" d="M272.4,94.3c-3.2,0.8-4.9,3.4-6.7,5.8C265,94.8,267.3,92.8,272.4,94.3z"/>
		<path id="XMLID_130_" class="st75" d="M192.3,199.9c-0.2,4-0.2,4-4.2,4.3C187.5,200.8,188.9,199.3,192.3,199.9z"/>
		<path id="XMLID_129_" class="st76" d="M192.3,199.9c-2.6,0.3-4,1.7-4.2,4.3c-1.6-1.3-1.5-2.9-0.3-4.3
			C189.1,198.4,190.8,198.2,192.3,199.9z"/>
		<path id="XMLID_128_" class="st77" d="M139.4,58.5c2.1,0.7,3,2.4,2,4.2c-0.8,1.4-2.2,2.9-4.3,1.5
			C136.8,61.9,136.9,59.7,139.4,58.5z"/>
		<path id="XMLID_127_" class="st78" d="M139.4,58.5c-0.8,1.9-1.6,3.8-2.4,5.7C134.9,61.1,135.7,59.2,139.4,58.5z"/>
		<path id="XMLID_126_" class="st79" d="M139.4,279.1c0.5,3.3-0.8,4.7-4.1,4.3C134.5,279.5,135.3,278.7,139.4,279.1z"/>
		<path id="XMLID_125_" class="st80" d="M139.4,279.1c-2.7,0.2-4.2,1.4-4.1,4.3c-2.3-1.1-2.1-2.9-0.8-4.5
			C135.9,277.2,137.8,277,139.4,279.1z"/>
		<path id="XMLID_124_" class="st54" d="M172.2,81.4c4.8,0.1,9.2,4.5,9,8.8c-0.3,4.8-4.9,9.2-9.5,9c-4.7-0.2-9.1-5-8.9-9.5
			C163,85,167.2,81.3,172.2,81.4z"/>
		<path id="XMLID_123_" class="st54" d="M186.1,122.3c-0.8,2.5-1.7,5-4.9,5c-2.9-0.1-4.9-1.9-4.9-4.8c-0.1-2.8,2.1-4.5,4.6-4.7
			C183.7,117.5,185.5,119.5,186.1,122.3z"/>
		<path id="XMLID_122_" class="st81" d="M160,107.8c-0.8,2.4-2.1,4.3-4.9,4.2c-2.5-0.1-4.3-1.7-4.3-4.2c-0.1-3,2.1-4.7,4.8-4.7
			C158.3,103,159.5,105.2,160,107.8z"/>
		<path id="XMLID_121_" class="st81" d="M195.7,112c-2.7,0.3-4.1-1.6-4-3.8c0.1-2.2,1.8-3.9,4.2-3.8c2.2,0.1,3.9,1.5,3.8,3.7
			C199.7,110.4,198.5,112.2,195.7,112z"/>
		<path id="XMLID_120_" class="st55" d="M141.2,238.6c0,3.5-1.9,5.2-4.4,5.2c-3,0-5-1.9-4.9-5.1c0-3.2,2.3-4.6,5-4.6
			C139.7,234.1,141.1,236.3,141.2,238.6z"/>
		<path id="XMLID_119_" class="st55" d="M148.3,232.2c-2.1,0-3.2-1.2-3.2-3.1c0-1.9,1.4-3.2,3.2-3.2s3.1,1.1,3.1,3.2
			C151.4,231.3,150.4,232.3,148.3,232.2z"/>
		<path id="XMLID_118_" class="st81" d="M147.4,249.3c-1.4,0.1-2.2-0.7-2.2-1.9c-0.1-1.2,0.5-2.2,1.9-2.2c1.4-0.1,2.5,0.6,2.5,2.1
			C149.6,248.5,148.6,249.2,147.4,249.3z"/>
	</g>
</g>
</svg>
